<svg id="Слой_1" data-name="Слой 1" xmlns="http://www.w3.org/2000/svg" viewBox="0 0 204.57 206.13"><defs><style>.cls-1{fill:#fff;}</style></defs><path class="cls-1" d="M117.74,204.47c-14.74.59-29.48,1.69-44.22,1.66-17.32,0-34.64-1.07-51.54-5.5a68.49,68.49,0,0,1-7.12-2.27C2.87,193.71,1,189.87.1,177.2c-1-14.39,5.66-23.74,16.78-31.12,10.83-7.19,22.76-11.68,35.36-14.5,9.64-2.16,12.73-9.75,7.24-17.76a54.17,54.17,0,0,1-3.79-6.45c-3-6-5.16-12.24-9.89-17.77A23.36,23.36,0,0,1,42,65.14c.47-1.18,0-2.85-.3-4.22-4-16.08-1.27-31.15,7.34-45C57.31,2.52,72.92-3,87.79,1.6c2,.63,4.37,1.25,5.87,2.63,4.21,3.86,8.87,5.12,14.58,5.49,7.31.49,11.55,6.06,14.32,12.48,4.85,11.23,4.61,23,3.74,34.9a59.67,59.67,0,0,0,.19,10.61c1,9-.37,17.18-6.32,24.42C118,94.73,116.6,98,115,101c-2.12,4-4.33,7.89-6.09,12-4.21,9.85-9.55,19.48-12,29.77-5.09,21.74,1.27,40.79,17.25,56.5,1.18,1.16,2.44,2.23,3.67,3.34Z" transform="translate(0 0)"/><path class="cls-1" d="M109.55,142.53c.63-5.09,3.85-13.09,10.32-9.87,8.8,3.16,16.59-6.6,12.6-14.73-1.2-4.19,2.8-6.6,6.24-7.65,5.43-3,8.17,1.11,10.6,5.44,5.39,6.16,15.14,3.61,17.83-3.81a5.34,5.34,0,0,1,6.32-2.35c12.71,3.89,6.28,7,7.55,16.23,1.68,6.14,8.83,9,14.51,6.48,6.13-1.7,7.68,5,9,9.2.22,7.5-12.19,6.39-9.69,17.39,1.61,8.79,14.43,7,7.88,18.12-1.57,6-7.1,4.26-11.56,3.27a10.37,10.37,0,0,0-10.55,9.81c.18,3.94,3,9.86-1.88,11.71-4.39,2.14-10.39,4.39-12.45-1.86-3.68-7.72-15.48-7.27-18.71.59-2.29,6-9.08,3.07-13.12.71-4.84-3.56.79-9.28-1.43-13.86a10.25,10.25,0,0,0-11.31-7c-3.41,1.08-7.9,2.16-9.63-2-2.3-4.39-4.36-10.35,1.83-12.46A10.35,10.35,0,0,0,117,150C114.57,147.16,110.08,146.77,109.55,142.53Zm69.57,14.32c-.39-29-43.52-29.18-44.12-.17C135.44,185.67,178.51,185.77,179.12,156.85Z" transform="translate(0 0)"/></svg>