<svg id="Слой_1" data-name="Слой 1" xmlns="http://www.w3.org/2000/svg" viewBox="0 0 161.1 143.04"><defs><style>.cls-1{fill:#fff;}</style></defs><path class="cls-1" d="M150.56,110.93v7.78a5,5,0,0,1-1.42.56c-6.45.33-6.46.32-3.61,6.12a12.22,12.22,0,1,1-20.92-1.59,53.34,53.34,0,0,1,3.67-4.1,28.7,28.7,0,0,0-2.94-.36q-27.53,0-55,0c-3,0-5.88-.18-3,4.3,4.16,6.43,2.87,13.29-2.79,17.19a12.26,12.26,0,0,1-16.61-2.4c-4.18-5.23-3.25-12.36,2.28-17.37.48-.44,1-.84,1.92-1.6-6.09-3.57-8.86-8.57-6.89-15.44,1.72-6,3.39-12,10.51-15-7.3-3.24-9.46-9.09-10.81-15.71C41.28,55.48,37.29,37.76,33.65,20c-.9-4.38-3.42-6.66-7.47-7.69-.77-.2-1.91-.6-2.34-.25-6.35,5.22-13.2,1-19.71.7C2.52,12.65-.23,8.22,0,6.08S3.49.79,5.66.58C10.9.05,17.42-.8,21.36,1.7c7.73,4.93,18.34,6.59,20,19.5,2.34,17.93,7.26,35.53,11.11,53.27,1.25,5.8,3.81,8,10.22,8.79L61.6,68.59l-6.93-.84,0-1.25,6.71-1c-.34-5-.68-9.75-1-14.89l-8.47-.91,0-1.29,8.18-.81c-.23-4.32-.47-8.68-.73-13.49l-14.58-.84-.29-6.16,116.63,2c-1.29,11.47-2.49,22.35-3.75,33.21a109.45,109.45,0,0,1-1.59,10.87c-1.72,7.74-6.32,11.75-14.2,12.44q-21.18,1.85-42.37,3.45c-2.93.23-5.69.25-4.25,4.69-10.6.93-20.53,1.85-30.48,2.65-8.1.64-9.2,1.66-11.08,9.39-1,4,.52,5.19,4.22,5.16,8.84-.07,17.68,0,26.52,0h66.44ZM79.1,65.82V50.55H62.57c.44,5.28.84,10.15,1.26,15.27Zm54.67-15.09H117.1V66h15.47C133,60.89,133.35,56.11,133.77,50.73Zm-34.71-.18V66h15.4V50.55Zm52.61.29H135.85c-.36,5.28-.69,10.17-1,15.36h15C150.44,61.1,151,56.21,151.67,50.84ZM63.78,68.46C64.23,74,64.65,79,65.1,84.61l14.47-.94V68.46ZM96.43,50.67H82v15.2h14.4Zm-34-2.84H78.67V34.23H61.51C61.81,38.75,62.09,43,62.41,47.83Zm36.76.11H115v-13H99.17Zm18.29.05h16.41c.3-4.39.58-8.43.87-12.63H117.46ZM82.25,83.4l14.07-1.19V68.69H82.25Zm-.86-35.53h15.2V34.65H81.39Zm54.71.29h15.83c.45-4.23.88-8.26,1.34-12.55H136.94C136.66,39.87,136.4,43.79,136.1,48.16ZM114.58,68.8H99V82.11l15-1.25C114.19,76.81,114.37,73,114.58,68.8Zm17.92,0H116.67V80.58l15-1.18C132,75.63,132.22,72.38,132.5,68.8Zm16.81.06H134.64c-.23,3.59-.43,6.8-.63,10C145.28,79.39,148,77.64,149.31,68.86ZM130,126.28c-2.52,3.27-2.63,5.79-.73,8.33a6.19,6.19,0,0,0,8.33,2c3.3-1.6,4-4.34,2.78-7.58l-9,4.13Zm-77.46.78c-2.37,3.44-2.07,6.61.63,8.31a9.8,9.8,0,0,0,7.64.9c3.24-1.21,4-4.43,2.9-7.35l-8.89,4.22C53.76,130.46,53.22,129,52.49,127.06Z"/></svg>