<svg id="Слой_1" data-name="Слой 1" xmlns="http://www.w3.org/2000/svg" viewBox="0 0 855 487.5"><defs><style>.cls-1{fill:#f5f5f5;}.cls-2{fill:#bebebe;}</style></defs><path class="cls-1" d="M427.5,487.43q-212,0-424.06.07c-2.81,0-3.44-.63-3.44-3.44Q.12,243.75,0,3.44C0,.63.63,0,3.44,0Q427.5.11,851.56,0c2.81,0,3.44.63,3.44,3.44q-.12,240.32,0,480.62c0,2.81-.63,3.44-3.44,3.44Q639.52,487.38,427.5,487.43Z"/><path class="cls-2" d="M455.28,323c-.54-4.6,1.88-4.29,4.69-3.94,21.8,2.69,43.62,5.21,65.41,8,7.18.91,14.36,1.82,21.56,2.56,3.21.33,4.25-.61,4.59-3.57q2.4-20.46,5-40.87c2.05-16.22,4.25-32.42,6.23-48.65,2.77-22.67,5.33-45.37,8.13-68,.39-3.18-.78-4.36-3.64-4.67-9.92-1.1-19.85-2.17-29.76-3.36-9.66-1.16-19.31-2.48-29-3.68q-30.28-3.76-60.57-7.47c-8.3-1-16.58-2.18-24.89-3-3.07-.3-4.3-1.85-5.18-4.46-2.26-6.7-2.31-6.86,4.5-6.12,13.52,1.47,27,3.19,40.51,4.77,16.23,1.9,32.41,4.17,48.67,5.91,15.87,1.71,31.67,4.06,47.5,6.09,5.69.72,11.43,1.12,17.1,2,5.29.84,6.57,3,5.91,8.37q-5.34,43.27-10.63,86.57c-1.81,14.74-3.69,29.48-5.5,44.22q-2.53,20.61-5,41.25c-.53,4.53-2.5,6.65-7.14,6.17-10.3-1.07-20.55-2.58-30.84-3.81-16.72-2-33.45-3.94-50.17-5.93q-3.54-.42-7-1a62.06,62.06,0,0,0-20.08,0c-17.66,2.52-35.43,4.32-53.14,6.49-12.26,1.5-24.48,3.41-36.76,4.64-10.31,1-20.55,2.57-30.83,3.81-7.9.95-15.89,1.43-23.74,3-6.62,1.3-8.83-.73-9.5-7.39-1-10.06-2.44-20.07-3.67-30.11q-3.41-27.87-6.79-55.74c-2.33-18.95-4.74-37.9-7.06-56.85q-1.83-14.87-3.44-29.75c-.47-4.29,1.9-6.54,7.26-7,6.6-.54,13.15-1.47,19.71-2.29,17.58-2.19,35.2-4.09,52.78-6.23,5.33-.64,10.58-1.86,16-2.09,3.45-.15,8.73,4.46,9.14,7.79.26,2.07-1.32,1.76-2.46,1.9-10.53,1.29-21.07,2.54-31.6,3.82-18.83,2.29-37.6,5.06-56.5,6.79-2.78.26-3.52,1.65-3.18,4.29,1.44,11.27,2.78,22.55,4.13,33.82,2.72,22.55,5.38,45.11,8.14,67.65,1.49,12.14,3.25,24.24,4.66,36.39.77,6.57,1.46,13.13,2.51,19.67.49,3.1,1.7,4,4.59,3.89,8-.2,15.87-1.82,23.8-2.73Q363,330.25,396.2,326c16-2,32-3.45,47.9-6.08,2.21-.37,4.49-.31,6.71-.62C453.34,318.9,453.73,321.08,455.28,323Z"/><path class="cls-2" d="M312.93,329.19c-3.48.11-3.7-.19-1.8-3.59Q330.53,291,350,256.36c4-7.06,12.52-6.68,18.86.46,5.3,6,10.77,11.79,16.26,17.6,3.35,3.55,3.57,3.56,6-.73q13.17-23.33,26.12-46.75c2.42-4.37,3.2-4.56,5.92-.56a43.06,43.06,0,0,0,2.77,4c1.45,1.66,1.29,3.29.67,5.22-1.76,5.46-3.23,11-5.08,16.44-.89,2.63-.08,4.34,1.89,5.85,4.48,3.44,8.12,7.77,12.25,11.58a11.48,11.48,0,0,1,3,5.1c3.67,11.13,7.33,22.28,11.08,33.39,1,3,.1,4.38-3.05,4.74-12.4,1.44-24.79,3-37.18,4.51q-38.46,4.77-76.92,9.58C326.15,327.6,319.71,328.37,312.93,329.19Z"/><path class="cls-2" d="M537.68,321.86c-10-1.95-20.86-2.63-31.61-4.08-15.82-2.14-31.68-4-47.54-5.76-2.78-.32-3.86-1.33-4.13-4.11-1.08-10.93-2-21.86-2.23-32.84-.09-5.1-2.22-9.37-5.05-13.44-2.21-3.17-4.2-6.49-6.35-9.7a5.44,5.44,0,0,1-.25-6.32c2.77-4.59,5.39-9.28,8.36-13.74,1.48-2.22,1.93-4.23.8-6.62-.37-.78-.74-1.58-1.08-2.39-2.39-5.64-2.18-6.54,2-10.88,3-3.14,5.84-6.5,8.95-9.57,6.57-6.48,14-5.58,18.56,2.48,10.78,19,21.37,38.05,32,57.09l31.8,56.79c.41.74,1.38,1.51.69,2.31C541.49,322.4,539.81,321.52,537.68,321.86Z"/><path class="cls-2" d="M319.41,223.53c-12.64.25-19.34-9.45-19.77-19.63-.43-10.39,9.16-19.31,19.84-19.34,10.25,0,19.43,9.15,19.45,19.43A19.69,19.69,0,0,1,319.41,223.53Z"/></svg>