<svg id="Capa_1" data-name="Capa 1" xmlns="http://www.w3.org/2000/svg" viewBox="0 0 612 612.02"><defs><style>.cls-1{fill:#fff;}</style></defs><path d="M65.6,612A65.59,65.59,0,0,1,24.2,495.55L164.3,366.2a240.41,240.41,0,0,1-34.84-124.92C129.46,108.24,237.68,0,370.73,0S612,108.24,612,241.27,503.77,482.54,370.73,482.54A241.59,241.59,0,0,1,260.27,455.8L112.56,592.19A64.69,64.69,0,0,1,65.6,612Z" transform="translate(-0.01 0)"/><path class="cls-1" d="M372.45,12.61c-125.14,0-226.94,101.81-226.94,226.94a226.15,226.15,0,0,0,37.08,124.32A10.36,10.36,0,0,1,181,377.19L30.29,516.28a46.59,46.59,0,0,0,28.9,83.12A46.25,46.25,0,0,0,92.86,585L250.39,439.53a10.37,10.37,0,0,1,12.08-1.45,227.21,227.21,0,0,0,110,28.4c125.14,0,227-101.81,227-226.94S497.59,12.61,372.45,12.61Z" transform="translate(-0.01 0)"/><path d="M370.73,408.59c-92.25,0-167.29-75.06-167.29-167.32S278.49,74,370.73,74,538,149,538,241.27,463,408.59,370.73,408.59Z" transform="translate(-0.01 0)"/><path class="cls-1" d="M370.73,86.79c-85.19,0-154.48,69.3-154.48,154.48s69.31,154.51,154.48,154.51,154.5-69.3,154.5-154.51S455.92,86.79,370.73,86.79Z" transform="translate(-0.01 0)"/></svg>