<svg id="Слой_1" data-name="Слой 1" xmlns="http://www.w3.org/2000/svg" viewBox="0 0 205.99 206.13"><defs><style>.cls-1{fill:#fff;}</style></defs><path class="cls-1" d="M117.75,204.47c-14.74.59-29.48,1.69-44.22,1.66-17.32,0-34.64-1.07-51.54-5.5a68.49,68.49,0,0,1-7.12-2.27C2.88,193.71,1,189.87.11,177.2c-1-14.39,5.66-23.74,16.78-31.12,10.83-7.19,22.76-11.68,35.36-14.5,9.64-2.16,12.73-9.75,7.24-17.76a54.17,54.17,0,0,1-3.79-6.45c-3.05-6-5.16-12.24-9.89-17.77A23.36,23.36,0,0,1,42,65.14c.47-1.18,0-2.85-.3-4.22-4-16.08-1.27-31.15,7.34-45C57.32,2.52,72.93-3,87.8,1.6c2,.63,4.37,1.25,5.87,2.63,4.21,3.86,8.87,5.12,14.58,5.49,7.31.49,11.55,6.06,14.32,12.48,4.85,11.23,4.61,23,3.74,34.9a59.67,59.67,0,0,0,.19,10.61c1,9-.37,17.18-6.32,24.42C118,94.73,116.61,98,115,101c-2.12,4-4.33,7.89-6.09,12-4.21,9.85-9.55,19.48-12,29.77-5.09,21.74,1.27,40.79,17.25,56.5,1.18,1.16,2.44,2.23,3.67,3.34Z" transform="translate(-0.01 0)"/><path class="cls-1" d="M206,155.74a50.39,50.39,0,1,1,0-.41Zm-56,8.18c-2.83-3-5.29-5.68-7.88-8.26-3.66-3.63-6.45-1.49-9.31,1.36s-5.06,5.62-1.43,9.3c5,5.11,10,10.25,15.21,15.16,3.81,3.59,7.48,3.16,10.51-1.23,8.8-12.73,17.54-25.5,26.06-38.42a7,7,0,0,0,.55-5.88c-3.25-6.32-10.18-6.6-14.1-.85-6.52,9.45-12.94,18.9-19.68,28.82Z" transform="translate(-0.01 0)"/></svg>